<svg xmlns="http://www.w3.org/2000/svg" width="60" height="40" viewBox="0 0 60 40"><rect width="100%" height="100%" fill="#EEE"/><path fill="#31343C" d="m16.515 16.025-2.36 2.88-.28.35q.23-.12.5-.18.27-.07.58-.07.45 0 .87.15.43.15.75.45.33.3.53.75.19.44.19 1.04 0 .55-.2 1.04-.2.48-.57.85-.37.36-.89.57-.52.21-1.15.21-.63 0-1.14-.21-.51-.2-.86-.56-.36-.37-.55-.88-.19-.52-.19-1.15 0-.56.23-1.15.23-.59.7-1.23l1.9-2.54q.1-.14.29-.23.19-.09.44-.09h1.21Zm-2.05 6.93q.32 0 .59-.11.28-.11.47-.31.2-.2.31-.47.11-.26.11-.58 0-.34-.11-.61-.1-.27-.3-.46-.19-.19-.46-.29-.27-.1-.59-.1-.33 0-.59.11-.26.11-.45.31-.19.19-.29.46-.11.27-.11.57 0 .33.09.61.09.27.27.46.18.19.45.3.26.11.61.11Zm9.3-2.96q0 1.04-.22 1.81t-.62 1.27q-.39.5-.93.74-.53.25-1.15.25-.63 0-1.16-.25-.53-.24-.92-.74t-.61-1.27q-.22-.77-.22-1.81t.22-1.81q.22-.76.61-1.26t.92-.75q.53-.24 1.16-.24.62 0 1.15.24.54.25.93.75.4.5.62 1.26.22.77.22 1.81Zm-1.4 0q0-.86-.13-1.43-.12-.56-.34-.9-.21-.33-.48-.47-.28-.13-.57-.13-.3 0-.57.13-.27.14-.48.47-.21.34-.33.9-.13.57-.13 1.43 0 .87.13 1.43.12.57.33.91.21.33.48.47.27.13.57.13.29 0 .57-.13.27-.14.48-.47.22-.34.34-.91.13-.56.13-1.43Zm10.14 2.16-.72.71-1.87-1.87-1.88 1.88-.72-.71 1.88-1.89-1.79-1.79.71-.71 1.8 1.79 1.78-1.78.72.71-1.78 1.79 1.87 1.87Zm4.76-1.18h2.42v-2.6q0-.37.05-.81l-2.47 3.41Zm3.6 0h1v.79q0 .11-.07.19t-.2.08h-.73v1.94h-1.18v-1.94h-3.36q-.13 0-.24-.09-.1-.08-.13-.21l-.14-.69 3.76-5.03h1.29v4.96Zm7.39-.98q0 1.04-.22 1.81-.23.77-.62 1.27t-.93.74q-.54.25-1.16.25-.62 0-1.15-.25-.53-.24-.92-.74t-.61-1.27q-.22-.77-.22-1.81t.22-1.81q.22-.76.61-1.26t.92-.75q.53-.24 1.15-.24.62 0 1.16.24.54.25.93.75t.62 1.26q.22.77.22 1.81Zm-1.4 0q0-.86-.13-1.43-.13-.56-.34-.9-.21-.33-.49-.47-.27-.13-.57-.13-.29 0-.56.13-.27.14-.48.47-.21.34-.34.9-.12.57-.12 1.43 0 .87.12 1.43.13.57.34.91.21.33.48.47.27.13.56.13.3 0 .57-.13.28-.14.49-.47.21-.34.34-.91.13-.56.13-1.43Z"/></svg>